<svg xmlns="http://www.w3.org/2000/svg" viewBox="0 0 24 24" id="Greek-Script-2--Streamline-Ultimate" height="24" width="24">
  <desc>
    Greek Script 2 Streamline Icon: https://streamlinehq.com
  </desc>
  <g>
    <path d="M8.65 21.89a1.79 1.79 0 0 0 -1 -1.61 0.75 0.75 0 0 1 0.35 -1.42h13.72V9.1a1 1 0 0 0 -0.29 -0.71l-0.85 -0.85c1.06 -1.42 1.14 -1.44 1.14 -1.85V3.25A3 3 0 0 0 18.77 0.3H3.19a3 3 0 0 0 -2.95 3v3.49a1 1 0 0 0 2 0V3.25a0.95 0.95 0 1 1 1.9 0v8.28c0 0.44 0.15 0.54 1.21 2C4.24 15 4.14 15 4.14 15.43v5.36a2.9 2.9 0 0 0 2.71 2.91 1.81 1.81 0 0 0 1.8 -1.81Zm8.6 -9.6H9.41a0.75 0.75 0 0 1 0 -1.5h7.84a0.75 0.75 0 0 1 0 1.5ZM18 15a0.76 0.76 0 0 1 -0.75 0.75H9.41a0.75 0.75 0 0 1 0 -1.5h7.84A0.76 0.76 0 0 1 18 15Zm-0.75 -6.19H9.41a0.75 0.75 0 0 1 0 -1.5h7.84a0.75 0.75 0 0 1 0 1.5ZM8.66 4.54a0.75 0.75 0 0 1 0.75 -0.75h1.09a0.75 0.75 0 0 1 0 1.5H9.41a0.74 0.74 0 0 1 -0.75 -0.75Zm8.59 0.75h-3.14a0.75 0.75 0 0 1 0 -1.5h3.14a0.75 0.75 0 0 1 0 1.5Z" fill="#000000" stroke-width="1"></path>
    <path d="M22.09 20.36H9.77a3.31 3.31 0 0 1 -0.16 3.34h12.48a1.67 1.67 0 0 0 0 -3.34Z" fill="#000000" stroke-width="1"></path>
  </g>
</svg>