<svg xmlns="http://www.w3.org/2000/svg" viewBox="0 0 24 24" id="Legal-Hammer--Streamline-Ultimate" height="24" width="24">
  <desc>
    Legal Hammer Streamline Icon: https://streamlinehq.com
  </desc>
  <g>
    <path d="m13.54 8.58 9.33 8.79a1.31 1.31 0 0 1 0 1.85l-0.93 0.93a1.31 1.31 0 0 1 -1.85 0l-8.79 -9.33" fill="none" stroke="currentColor" stroke-linecap="round" stroke-linejoin="round" stroke-width="1.5"></path>
    <path d="M3.85 8.54a19.06 19.06 0 0 0 7.41 -7.41 1.31 1.31 0 0 1 1.85 0l3.51 3.51a1.32 1.32 0 0 1 0 1.86 18.09 18.09 0 0 0 -7.41 7.4 1.31 1.31 0 0 1 -1.85 0l-3.51 -3.51a1.31 1.31 0 0 1 0 -1.85Z" fill="none" stroke="currentColor" stroke-linecap="round" stroke-linejoin="round" stroke-width="1.5"></path>
    <path d="M12.75 20.75h0a1.5 1.5 0 0 0 -1.5 -1.5h-7.5a1.5 1.5 0 0 0 -1.5 1.5h0v2.5h10.5Z" fill="none" stroke="currentColor" stroke-linecap="round" stroke-linejoin="round" stroke-width="1.5"></path>
    <path d="m0.75 23.25 13.5 0" fill="none" stroke="currentColor" stroke-linecap="round" stroke-linejoin="round" stroke-width="1.5"></path>
  </g>
</svg>