<svg xmlns="http://www.w3.org/2000/svg" fill="none" viewBox="0 0 24 24" id="Vip-Crown-King-1--Streamline-Ultimate" height="24" width="24">
  <desc>
    Vip Crown King 1 Streamline Icon: https://streamlinehq.com
  </desc>
  <path stroke="currentColor" stroke-linecap="round" stroke-linejoin="round" d="m21.92 19 1.32 -8c0.0203 -0.136 0.0028 -0.275 -0.0506 -0.4017 -0.0534 -0.1268 -0.1406 -0.2364 -0.2521 -0.3169 -0.1115 -0.0805 -0.2429 -0.1288 -0.38 -0.1397 -0.1371 -0.0108 -0.2746 0.0163 -0.3973 0.0783L19 12.65c-0.3127 0.2416 -0.6969 0.3723 -1.0921 0.3715 -0.3952 -0.0008 -0.7788 -0.1331 -1.0905 -0.376 -0.3117 -0.243 -0.5337 -0.5827 -0.631 -0.9657 -0.0973 -0.3831 -0.0644 -0.7876 0.0936 -1.1498l1.63 -3.82L12 0.75l-5.91 6 1.63 3.82c0.14206 0.3602 0.16282 0.7568 0.05913 1.1298 -0.10369 0.3731 -0.32617 0.7021 -0.63372 0.9373 -0.30754 0.2352 -0.68338 0.3637 -1.07054 0.366 -0.38715 0.0023 -0.76451 -0.1216 -1.07487 -0.3531l-3.16 -2.41c-0.12112 -0.0605 -0.25637 -0.0872 -0.3914 -0.077 -0.13503 0.0101 -0.2648 0.0566 -0.37554 0.1345 -0.110733 0.0779 -0.198307 0.1844 -0.253426 0.3081 -0.055119 0.1237 -0.075726 0.26 -0.059634 0.3944l1.32 8" stroke-width="1.5"></path>
  <path stroke="currentColor" stroke-linecap="round" stroke-linejoin="round" d="M23.25 21c0 -0.5967 -0.2371 -1.169 -0.659 -1.591 -0.422 -0.4219 -0.9943 -0.659 -1.591 -0.659H3c-0.59674 0 -1.16903 0.2371 -1.59099 0.659C0.987053 19.831 0.75 20.4033 0.75 21v0c0 0.5967 0.237053 1.169 0.65901 1.591 0.42196 0.4219 0.99425 0.659 1.59099 0.659h18c0.5967 0 1.169 -0.2371 1.591 -0.659 0.4219 -0.422 0.659 -0.9943 0.659 -1.591v0Z" stroke-width="1.5"></path>
  <path stroke="currentColor" d="M12.0664 8.24512c-0.2071 0 -0.375 -0.1679 -0.375 -0.375 0 -0.20711 0.1679 -0.375 0.375 -0.375" stroke-width="1.5"></path>
  <path stroke="currentColor" d="M12.0664 8.24512c0.2072 0 0.375 -0.1679 0.375 -0.375 0 -0.20711 -0.1678 -0.375 -0.375 -0.375" stroke-width="1.5"></path>
</svg>